<?xml version="1.0" encoding="UTF-8" standalone="no"?>
<!-- Created with Inkscape (http://www.inkscape.org/) -->

<svg
   version="1.1"
   id="svg1"
   width="1024"
   height="1024"
   viewBox="0 0 1024 1024"
   sodipodi:docname="monviso.png"
   xmlns:inkscape="http://www.inkscape.org/namespaces/inkscape"
   xmlns:sodipodi="http://sodipodi.sourceforge.net/DTD/sodipodi-0.dtd"
   xmlns="http://www.w3.org/2000/svg"
   xmlns:svg="http://www.w3.org/2000/svg">
  <defs
     id="defs1" />
  <sodipodi:namedview
     id="namedview1"
     pagecolor="#ffffff"
     bordercolor="#000000"
     borderopacity="0.25"
     inkscape:showpageshadow="2"
     inkscape:pageopacity="0.0"
     inkscape:pagecheckerboard="0"
     inkscape:deskcolor="#d1d1d1">
    <inkscape:page
       x="0"
       y="0"
       width="1024"
       height="1024"
       id="page2"
       margin="0"
       bleed="0" />
  </sodipodi:namedview>
  <g
     inkscape:groupmode="layer"
     inkscape:label="Image"
     id="g1">
    <path
       style="fill:#000000"
       d="m 363.2061,731.55238 c -14.18557,-3.05728 -24.43077,-12.7797 -28.54354,-27.08708 -2.64086,-9.18694 -1.66025,-22.41625 2.27571,-30.70115 4.18714,-8.81363 9.20944,-14.21499 16.56125,-17.8112 10.45508,-5.11421 19.1928,-6.09817 30.76984,-3.46503 20.99536,4.77529 33.46186,25.68059 28.99039,48.61453 -2.45737,12.60377 -9.90279,22.55639 -20.50535,27.4104 -9.38474,4.29648 -19.08586,5.2944 -29.5483,3.03953 z m 17.36143,-15.87271 c 5.23755,-1.56921 10.84481,-7.17647 12.41402,-12.41402 1.54022,-5.1408 1.5887,-16.97823 0.0879,-21.46076 -0.62596,-1.86957 -2.26465,-4.9152 -3.64154,-6.76806 -7.74245,-10.41893 -28.23204,-9.05569 -33.58975,2.23484 -5.0609,10.66506 -4.0084,26.17537 2.24002,33.0101 5.42694,5.93617 13.90269,7.97053 22.48935,5.3979 z m 297.90976,16.23682 c -10.377,-2.20721 -18.62041,-7.9723 -22.31628,-15.60696 -1.20032,-2.47954 -2.01839,-4.62079 -1.81793,-4.75835 0.20046,-0.13755 4.49914,-1.15558 9.55262,-2.26228 l 9.18819,-2.01219 0.5529,2.20306 c 0.3041,1.21169 2.113,3.57278 4.0196,5.24688 6.792,5.96345 18.2757,4.98263 21.9517,-1.87488 1.6991,-3.16963 1.7512,-3.85725 0.4909,-6.48668 -1.8897,-3.9428 -4.7304,-5.13327 -17.9129,-7.50699 -12.2159,-2.19966 -17.2112,-4.2595 -21.59601,-8.90526 -8.34943,-8.84625 -6.5496,-25.56722 3.53865,-32.87511 11.99166,-8.6867 33.39566,-7.80693 44.33506,1.82229 3.9409,3.46893 8.7397,11.34307 7.6046,12.47815 -0.2487,0.24867 -4.0937,1.30005 -8.5444,2.33641 l -8.0923,1.88429 -1.5726,-3.29765 c -2.0743,-4.34992 -5.6982,-6.59753 -11.5428,-7.15912 -10.5062,-1.00952 -16.858,7.32518 -10.8587,14.24867 1.8047,2.08284 3.9318,2.89703 10.75,4.11478 26.646,4.75915 33,9.26321 33,23.3924 0,10.62197 -4.8186,17.85807 -14.9065,22.38524 -6.6654,2.99125 -18.478,4.19579 -25.8238,2.6333 z m 80.7303,-0.40132 c -18.6375,-4.14388 -29.9534,-19.33371 -29.9882,-40.25416 -0.043,-26.11112 21.3908,-43.97339 47.3434,-39.45392 9.3265,1.62413 14.9266,4.30616 21.0156,10.06486 8.2963,7.84634 12.5803,18.24391 12.5803,30.53372 0,27.88937 -22.7781,45.37356 -50.9511,39.1095 z m 17.2189,-15.65351 c 5.0526,-1.40324 9.706,-5.532 11.9484,-10.60137 2.444,-5.52511 2.6157,-17.48089 0.3491,-24.30507 -3.5622,-10.72471 -15.6858,-15.91564 -27.3238,-11.69912 -4.4765,1.62187 -9.8289,7.04408 -11.347,11.49497 -1.8662,5.47156 -1.6335,17.81982 0.4378,23.23452 3.9079,10.2153 14.4816,15.05713 25.9355,11.87607 z M 212.20755,677.90567 v -53 h 10.93153 10.93154 l 14.81846,28.98592 c 8.15016,15.94226 15.04347,28.98095 15.31847,28.97485 0.275,-0.006 7.08619,-12.93726 15.13599,-28.73592 l 14.63598,-28.72485 11.11402,-0.28275 11.11401,-0.28275 v 53.03275 53.03275 h -9.55705 -9.55705 l 0.30705,-36.41793 c 0.16888,-20.02986 0.23828,-36.34236 0.15423,-36.25 -0.084,0.0924 -2.41753,4.44293 -5.1855,9.66793 -2.76797,5.225 -8.81018,16.475 -13.42714,25 l -8.39445,15.5 h -6.35115 -6.35115 l -8.3939,-15.5 c -4.61664,-8.525 -10.65387,-19.775 -13.41607,-25 -2.7622,-5.225 -5.09095,-9.57541 -5.175,-9.66757 -0.084,-0.0922 -0.0362,16.22034 0.10626,36.25 l 0.25909,36.41757 h -9.50909 -9.50908 z m 216.77282,14.00036 0.27281,-39.00036 h 8.80958 8.80957 l -0.29909,5 c -0.1645,2.75 -0.06,5 0.23217,5 0.29219,0 1.64787,-1.32701 3.0126,-2.94891 6.02211,-7.15687 19.26249,-10.4757 30.42585,-7.62652 8.25136,2.10595 12.70404,5.65402 16.46369,13.11887 l 3,5.95656 0.32822,29.75 0.32822,29.75 H 490.28577 480.20755 V 704.3068 c 0,-29.41226 -0.35147,-31.40539 -6.14122,-34.82548 -4.05854,-2.39744 -12.61024,-2.35261 -17.59611,0.0922 -2.05495,1.00766 -4.75472,3.36116 -5.99947,5.22999 -2.20772,3.31458 -2.2632,4.04393 -2.2632,29.75 v 26.35216 l -9.75,3.6e-4 -9.75,3.7e-4 z m 118.76382,37.28128 c -0.38589,-0.9799 -8.36565,-22.03164 -17.7328,-46.78164 -9.36715,-24.75 -18.10671,-47.82725 -19.42126,-51.28279 l -2.39008,-6.28278 11.10314,0.28278 11.10315,0.28279 12.43258,34.5 c 6.83792,18.975 13.46532,37.35405 14.72757,40.84233 l 2.29499,6.34233 L 574.075,667.248 c 7.81744,-21.91328 14.40618,-40.40483 14.64165,-41.09233 0.30649,-0.89484 3.45081,-1.25 11.0665,-1.25 9.72987,0 10.57903,0.14945 9.94341,1.75 -0.38223,0.9625 -6.91489,18.175 -14.51701,38.25 -7.60212,20.075 -16.30901,43.025 -19.34864,51 l -5.5266,14.5 -10.94425,0.28164 c -9.72266,0.2502 -11.02257,0.0828 -11.64587,-1.5 z m 73.46336,-37.28164 v -39 h 9.47718 9.47719 l 0.27281,39.00036 0.27282,39.00037 -9.75,-3.7e-4 -9.75,-3.6e-4 z m 4.38812,-49.9289 c -6.104,-2.61419 -8.47679,-12.14606 -4.33447,-17.41217 6.69046,-8.50555 20.58635,-3.28976 20.3003,7.61966 -0.19011,7.25025 -9.11722,12.72561 -15.96583,9.79251 z M 492.70755,579.29955 c -51.71306,-5.07714 -89.51602,-21.14756 -133.5,-56.75219 -20.47421,-16.57368 -61.18114,-61.09732 -64.96924,-71.0608 -2.20066,-5.78816 0.7636,-10.47837 20.86163,-33.00847 56.77091,-63.64075 109.47601,-92.99003 177.10761,-98.62389 53.10551,-4.42381 107.28783,8.73175 147.5,35.81325 28.15564,18.96185 56.98904,45.51553 82.64114,76.10711 10.2606,12.23642 11.6187,14.88243 9.8411,19.17401 -1.7687,4.27 -16.4099,22.54681 -30.1823,37.67686 -32.0641,35.225 -74.43473,65.15037 -109.79994,77.549 -29.33624,10.28495 -43.51207,12.85419 -73,13.23062 -12.375,0.15797 -24.3,0.1105 -26.5,-0.1055 z m 45.54698,-100.49689 c -0.0303,-53.08401 0.30404,-80.60549 1.00357,-82.61217 1.54019,-4.41817 4.55128,-5.28482 18.36164,-5.28482 10.94769,0 12.61122,0.23058 14.95295,2.07258 l 2.63486,2.07258 v 73.42742 c 0,40.38508 0.38289,73.42742 0.85087,73.42742 1.64768,0 13.71396,-9.80255 19.22356,-15.61707 11.26515,-11.8886 19.83089,-25.83027 25.32602,-41.22083 7.68397,-21.52095 7.65659,-50.87215 -0.0676,-72.51169 -13.88123,-38.88851 -46.45215,-66.19528 -86.08128,-72.16873 -19.79144,-2.98324 -42.09051,-1.27667 -59.55502,4.55782 -34.48212,11.51967 -61.77537,40.76484 -71.37919,76.48398 -2.44202,9.08251 -2.68205,11.58952 -2.67865,27.97652 0.003,15.14971 0.33338,19.1925 2.08555,25.5308 5.54835,20.07066 14.3608,35.88623 27.67207,49.66268 l 7.54292,7.80652 0.0304,-33.19424 0.0304,-33.19423 2.41138,-2.80577 c 2.33733,-2.7196 2.75848,-2.81633 13.71405,-3.14992 12.0511,-0.36695 18.23448,0.76928 19.75135,3.62941 0.50018,0.94311 1.21683,21.28439 1.59254,45.20284 0.49523,31.52696 1.00596,43.69772 1.8569,44.25026 0.64558,0.4192 2.88943,1.23698 4.98633,1.8173 2.0969,0.58032 4.3469,1.26029 5,1.51105 0.91052,0.34959 1.12399,-13.9869 0.91534,-61.47392 l -0.27211,-61.92985 2.43324,-2.83146 c 2.38766,-2.77844 2.66134,-2.83776 14.61216,-3.16728 13.60717,-0.37518 16.17386,0.0109 19.02426,2.86125 1.92479,1.92479 1.97456,3.58153 1.97442,65.72456 l -1.5e-4,63.75 6.04635,-0.5 6.04634,-0.5 z m -129.79012,50.22961 c -37.81694,-45.1515 -37.09768,-115.26314 1.65219,-161.05144 l 4.59095,-5.42483 -5,2.83044 c -18.54591,10.49862 -38.81084,26.06322 -57.45956,44.13214 -12.49868,12.11009 -35.54044,37.62709 -35.54044,39.35834 0,1.85977 20.39109,24.99844 34.4613,39.10475 13.71971,13.7549 27.23041,25.32335 38.5387,32.99851 4.69371,3.18571 23.69601,14.86252 24.25686,14.90571 0.14127,0.0109 -2.33373,-3.07325 -5.5,-6.85362 z m 216.93451,-1.24746 c 24.48227,-15.46144 47.47617,-35.95606 72.53207,-64.64817 l 12.4606,-14.26903 -7.342,-8.73097 c -19.2492,-22.89061 -49.10674,-50.92591 -67.33824,-63.2284 -8.9417,-6.0338 -22.5038,-14.08775 -22.5038,-13.36404 0,0.29745 2.44074,3.28084 5.42386,6.62976 13.55414,15.21617 23.98779,40.89699 26.68013,65.669 3.69968,34.04043 -7.30088,71.26954 -27.79389,94.0627 -2.47249,2.75001 -4.24766,5.00001 -3.94481,5.00001 0.30285,0 5.62458,-3.20439 11.82608,-7.12086 z"
       id="path1" />
  </g>
</svg>
